<svg width="31" height="31" viewBox="0 0 31 31" fill="none" xmlns="http://www.w3.org/2000/svg">
<path d="M15.4998 27.1667C9.06859 27.1667 3.83317 21.9313 3.83317 15.5001C3.83317 9.06883 9.06859 3.83341 15.4998 3.83341C21.9311 3.83341 27.1665 9.06883 27.1665 15.5001C27.1665 21.9313 21.9311 27.1667 15.4998 27.1667ZM15.4998 30.0834C23.5498 30.0834 30.0832 23.5501 30.0832 15.5001C30.0832 7.45008 23.5498 0.916748 15.4998 0.916748C7.44984 0.916748 0.916504 7.45008 0.916504 15.5001C0.916504 23.5501 7.44984 30.0834 15.4998 30.0834ZM14.0415 15.5001V21.3334H16.9582V15.5001H21.3332L15.4998 9.66675L9.6665 15.5001H14.0415Z" fill="white"/>
</svg>
